<svg xmlns="http://www.w3.org/2000/svg" viewBox="0 0 55 58" width="55" height="58">
  <rect width="55" height="58" fill="#120B0D"/>
  <g transform="translate(0.629 6.048) scale(0.137433)"><path d="M 180.000,44.008 C 177.505,44.205 175.034,44.768 172.538,44.985 C 170.041,45.202 167.526,45.152 165.021,45.311 C 162.515,45.469 159.984,45.611 157.503,45.936 C 155.023,46.260 152.603,46.771 150.137,47.259 C 147.671,47.746 144.926,47.840 142.710,48.859 C 140.493,49.878 137.415,51.448 136.836,53.373 C 136.257,55.299 137.931,58.358 139.235,60.414 C 140.540,62.469 142.960,63.863 144.663,65.705 C 146.366,67.546 147.860,69.528 149.453,71.462 C 151.045,73.396 152.760,75.268 154.217,77.306 C 155.674,79.345 156.900,81.543 158.192,83.693 C 159.485,85.842 160.787,87.993 161.971,90.203 C 163.155,92.413 164.225,94.683 165.297,96.952 C 166.370,99.221 167.405,101.517 168.404,103.818 C 169.403,106.118 170.465,108.391 171.292,110.753 C 172.118,113.115 172.686,115.567 173.363,117.988 C 174.039,120.408 174.705,122.863 175.350,125.276 C 175.995,127.689 176.741,129.986 177.235,132.467 C 177.729,134.949 178.298,137.714 178.313,140.167 C 178.328,142.619 178.728,145.714 177.327,147.181 C 175.925,148.649 172.387,148.864 169.904,148.970 C 167.422,149.077 164.909,148.204 162.432,147.822 C 159.955,147.441 157.488,147.210 155.044,146.681 C 152.600,146.151 150.173,145.367 147.769,144.646 C 145.365,143.926 142.965,143.234 140.620,142.358 C 138.276,141.482 136.021,140.343 133.703,139.389 C 131.384,138.436 128.978,137.697 126.711,136.634 C 124.445,135.572 122.288,134.245 120.101,133.017 C 117.915,131.789 115.715,130.593 113.590,129.264 C 111.465,127.935 109.385,126.513 107.350,125.043 C 105.315,123.573 103.329,122.016 101.381,120.441 C 99.433,118.866 97.486,117.317 95.662,115.595 C 93.838,113.873 92.327,111.749 90.437,110.108 C 88.547,108.468 86.426,106.048 84.323,105.750 C 82.220,105.452 79.278,106.640 77.819,108.319 C 76.361,109.998 76.101,113.340 75.573,115.825 C 75.045,118.311 74.993,120.757 74.650,123.232 C 74.307,125.708 73.799,128.188 73.516,130.680 C 73.233,133.171 73.112,135.681 72.952,138.183 C 72.792,140.685 72.728,143.190 72.556,145.690 C 72.383,148.190 72.010,150.680 71.918,153.184 C 71.825,155.688 71.976,158.204 72.001,160.715 C 72.027,163.226 72.079,165.741 72.068,168.250 C 72.057,170.759 71.955,173.262 71.936,175.768 C 71.917,178.274 71.876,180.779 71.952,183.288 C 72.028,185.797 72.195,188.314 72.392,190.821 C 72.589,193.328 72.869,195.839 73.137,198.332 C 73.404,200.826 73.704,203.306 73.997,205.781 C 74.291,208.256 74.536,210.686 74.897,213.183 C 75.258,215.680 75.405,218.399 76.164,220.760 C 76.923,223.122 77.684,226.215 79.453,227.350 C 81.222,228.484 84.678,228.456 86.777,227.567 C 88.877,226.677 90.201,223.726 92.048,222.012 C 93.895,220.297 95.928,218.874 97.859,217.280 C 99.790,215.686 101.692,214.039 103.633,212.447 C 105.575,210.854 107.486,209.204 109.509,207.725 C 111.531,206.246 113.628,204.875 115.767,203.573 C 117.905,202.272 120.118,201.081 122.341,199.917 C 124.565,198.753 126.833,197.657 129.106,196.588 C 131.378,195.518 133.663,194.468 135.977,193.501 C 138.290,192.534 140.619,191.602 142.988,190.786 C 145.356,189.971 147.762,189.242 150.189,188.607 C 152.616,187.972 155.101,187.476 157.548,186.977 C 159.995,186.479 162.343,185.939 164.871,185.616 C 167.399,185.293 170.459,184.584 172.718,185.041 C 174.976,185.498 177.583,186.485 178.423,188.358 C 179.262,190.231 178.018,193.703 177.757,196.278 C 177.496,198.853 177.203,201.342 176.854,203.808 C 176.504,206.275 176.230,208.651 175.660,211.078 C 175.089,213.506 174.243,215.990 173.430,218.374 C 172.617,220.757 171.653,223.034 170.781,225.380 C 169.908,227.726 169.203,230.158 168.196,232.450 C 167.189,234.742 165.897,236.905 164.738,239.133 C 163.580,241.361 162.458,243.620 161.245,245.817 C 160.033,248.013 158.836,250.221 157.464,252.314 C 156.092,254.407 154.557,256.394 153.013,258.374 C 151.470,260.354 149.831,262.306 148.203,264.197 C 146.574,266.088 144.959,267.844 143.240,269.721 C 141.521,271.598 138.875,273.399 137.889,275.459 C 136.903,277.519 136.271,280.329 137.323,282.083 C 138.375,283.837 141.830,285.100 144.201,285.984 C 146.572,286.868 149.086,286.978 151.551,287.386 C 154.016,287.794 156.501,288.162 158.992,288.432 C 161.483,288.701 163.994,288.864 166.496,289.004 C 168.997,289.143 171.504,289.087 174.001,289.269 C 176.498,289.451 178.974,289.980 181.475,290.096 C 183.976,290.211 186.495,289.975 189.006,289.962 C 191.517,289.949 194.030,290.001 196.540,290.018 C 199.050,290.036 201.558,290.096 204.066,290.066 C 206.573,290.036 209.077,289.942 211.582,289.837 C 214.087,289.732 216.593,289.591 219.097,289.437 C 221.601,289.282 224.110,289.146 226.607,288.912 C 229.104,288.678 231.597,288.356 234.079,288.032 C 236.562,287.708 239.030,287.431 241.503,286.968 C 243.977,286.504 246.796,286.370 248.920,285.248 C 251.045,284.127 253.824,282.237 254.250,280.236 C 254.677,278.235 252.846,275.285 251.478,273.244 C 250.109,271.202 247.739,269.830 246.039,267.989 C 244.339,266.149 242.859,264.140 241.278,262.199 C 239.696,260.258 238.055,258.356 236.549,256.346 C 235.042,254.335 233.561,252.267 232.239,250.135 C 230.918,248.003 229.753,245.786 228.620,243.555 C 227.488,241.323 226.484,239.029 225.443,236.746 C 224.401,234.464 223.383,232.161 222.371,229.860 C 221.359,227.559 220.242,225.287 219.371,222.941 C 218.499,220.596 217.787,218.205 217.142,215.786 C 216.497,213.368 216.066,210.861 215.501,208.431 C 214.936,206.000 214.233,203.697 213.752,201.205 C 213.271,198.713 212.590,195.909 212.616,193.479 C 212.641,191.050 212.435,188.031 213.905,186.627 C 215.374,185.222 218.936,185.120 221.433,185.053 C 223.931,184.986 226.414,185.835 228.888,186.224 C 231.362,186.614 233.834,186.850 236.277,187.388 C 238.719,187.925 241.143,188.719 243.544,189.449 C 245.945,190.179 248.346,190.871 250.682,191.766 C 253.019,192.661 255.275,193.783 257.562,194.819 C 259.849,195.855 262.144,196.906 264.407,197.983 C 266.670,199.061 268.962,200.062 271.142,201.286 C 273.322,202.510 275.399,203.931 277.488,205.328 C 279.577,206.724 281.645,208.188 283.677,209.663 C 285.709,211.139 287.749,212.595 289.680,214.180 C 291.610,215.766 293.453,217.432 295.260,219.177 C 297.067,220.923 298.564,223.084 300.523,224.656 C 302.483,226.227 304.870,228.355 307.017,228.606 C 309.165,228.858 312.026,227.847 313.409,226.163 C 314.793,224.479 314.832,221.019 315.320,218.504 C 315.807,215.990 315.986,213.544 316.333,211.076 C 316.680,208.608 317.122,206.185 317.403,203.696 C 317.684,201.207 317.880,198.646 318.019,196.140 C 318.158,193.634 318.058,191.153 318.236,188.660 C 318.414,186.166 318.952,183.682 319.085,181.179 C 319.219,178.677 319.059,176.154 319.035,173.645 C 319.010,171.135 318.946,168.630 318.938,166.121 C 318.930,163.613 318.956,161.106 318.984,158.595 C 319.012,156.084 319.123,153.565 319.109,151.056 C 319.094,148.547 319.072,146.039 318.898,143.542 C 318.723,141.046 318.379,138.566 318.060,136.077 C 317.741,133.587 317.325,131.089 316.985,128.604 C 316.644,126.119 316.336,123.653 316.018,121.166 C 315.699,118.679 315.754,116.078 315.074,113.682 C 314.393,111.286 313.652,108.089 311.934,106.791 C 310.217,105.494 306.831,105.130 304.767,105.897 C 302.702,106.665 301.302,109.564 299.549,111.398 C 297.795,113.232 296.106,115.215 294.243,116.903 C 292.380,118.591 290.374,120.043 288.370,121.525 C 286.366,123.008 284.283,124.374 282.220,125.800 C 280.158,127.226 278.107,128.716 275.995,130.081 C 273.883,131.446 271.756,132.804 269.549,133.991 C 267.343,135.177 265.044,136.180 262.756,137.201 C 260.469,138.222 258.152,139.180 255.826,140.117 C 253.501,141.054 251.162,141.962 248.804,142.824 C 246.445,143.686 244.077,144.568 241.674,145.290 C 239.272,146.013 236.836,146.680 234.388,147.158 C 231.941,147.635 229.506,147.842 226.991,148.155 C 224.475,148.467 221.654,149.325 219.294,149.033 C 216.935,148.740 213.877,148.135 212.834,146.399 C 211.790,144.663 212.806,141.153 213.033,138.617 C 213.260,136.081 213.677,133.626 214.195,131.180 C 214.714,128.735 215.535,126.373 216.143,123.943 C 216.752,121.514 217.152,119.011 217.846,116.602 C 218.540,114.193 219.449,111.844 220.307,109.488 C 221.164,107.133 221.961,104.750 222.991,102.469 C 224.022,100.189 225.352,98.037 226.491,95.803 C 227.630,93.570 228.629,91.269 229.824,89.066 C 231.020,86.864 232.385,84.741 233.664,82.587 C 234.942,80.433 236.045,78.180 237.494,76.142 C 238.944,74.104 240.732,72.257 242.360,70.360 C 243.988,68.462 245.545,66.619 247.261,64.757 C 248.976,62.894 251.513,61.245 252.651,59.185 C 253.789,57.126 254.959,54.181 254.090,52.398 C 253.221,50.615 249.794,49.297 247.438,48.485 C 245.081,47.673 242.432,47.883 239.953,47.526 C 237.475,47.170 235.052,46.643 232.567,46.347 C 230.082,46.050 227.543,45.975 225.044,45.749 C 222.545,45.522 220.072,45.139 217.574,44.989 C 215.075,44.840 212.552,45.022 210.054,44.849 C 207.556,44.676 205.087,44.096 202.587,43.952 C 200.087,43.808 197.567,44.012 195.053,43.988 C 192.540,43.963 190.016,43.802 187.507,43.805 C 184.999,43.809 182.495,43.811 180.000,44.008 Z" fill="#C1121F"/></g>
</svg>
